<svg xmlns="http://www.w3.org/2000/svg" width="16.5" height="7.06" viewBox="0 0 16.5 7.06">
  <defs>
    <style>
      .cls-1 {
        fill: #0a0900;
        fill-rule: evenodd;
      }
    </style>
  </defs>
  <path id="Shape_386_copy_8" data-name="Shape 386 copy 8" class="cls-1" d="M1125.68,1081.94l2.9,2.9a0.625,0.625,0,0,0,.87,0,0.616,0.616,0,0,0,0-.87l-1.87-1.86h13.81a0.615,0.615,0,0,0,0-1.23h-13.81l1.87-1.86a0.6,0.6,0,0,0,0-.86,0.616,0.616,0,0,0-.87,0l-2.9,2.89a0.661,0.661,0,0,0-.18.45A0.62,0.62,0,0,0,1125.68,1081.94Z" transform="translate(-1125.5 -1077.97)"/>
</svg>
