<svg xmlns="http://www.w3.org/2000/svg" width="16.5" height="7.06" viewBox="0 0 16.5 7.06">
  <defs>
    <style>
      .cls-1 {
        fill: #0a0900;
        fill-rule: evenodd;
      }
    </style>
  </defs>
  <path id="Shape_386_copy_8" data-name="Shape 386 copy 8" class="cls-1" d="M332.68,1061.94l2.9,2.9a0.631,0.631,0,0,0,.867,0,0.617,0.617,0,0,0,0-.87l-1.866-1.86h13.806a0.615,0.615,0,0,0,0-1.23H334.582l1.866-1.86a0.605,0.605,0,0,0,0-.86,0.612,0.612,0,0,0-.867,0l-2.9,2.89a0.638,0.638,0,0,0-.179.45A0.6,0.6,0,0,0,332.68,1061.94Z" transform="translate(-332.5 -1057.97)"/>
</svg>
