<svg xmlns="http://www.w3.org/2000/svg" width="16.5" height="7.03" viewBox="0 0 16.5 7.03">
  <defs>
    <style>
      .cls-1 {
        fill-rule: evenodd;
      }
    </style>
  </defs>
  <path id="Shape_386_copy_9" data-name="Shape 386 copy 9" class="cls-1" d="M567.32,1354.06l-2.9-2.9a0.631,0.631,0,0,0-.867,0,0.617,0.617,0,0,0,0,.87l1.866,1.86H551.612a0.615,0.615,0,0,0,0,1.23h13.806l-1.866,1.86a0.605,0.605,0,0,0,0,.86,0.612,0.612,0,0,0,.867,0l2.9-2.89a0.638,0.638,0,0,0,.179-0.45A0.6,0.6,0,0,0,567.32,1354.06Z" transform="translate(-551 -1351)"/>
</svg>
