<svg xmlns="http://www.w3.org/2000/svg" width="45.97" height="47.531" viewBox="0 0 45.97 47.531">
  <defs>
    <style>
      .cls-1 {
        fill: #fe0;
        fill-rule: evenodd;
      }
    </style>
  </defs>
  <path class="cls-1" d="M1329.11,508.325l0.03-.367c0.01-.2.03-0.388,0.04-0.584,0.01-.334.02-0.668,0.02-1a21.3,21.3,0,0,0-.26-3.292c2.27-3.059,4.06-6.363,4.06-9.177a13.831,13.831,0,0,0-24.67-8.665,0.8,0.8,0,0,0-.21-0.032,21.129,21.129,0,0,0-20.88,18.325,0.037,0.037,0,0,0-.01.03c-0.04.285-.07,0.572-0.1,0.862-0.01.118-.02,0.237-0.02,0.355-0.02.2-.04,0.394-0.05,0.593-0.01.333-.02,0.667-0.02,1s0.01,0.668.02,1c0.01,0.2.03,0.389,0.04,0.583l0.03,0.367c0.03,0.283.06,0.564,0.1,0.845a0.087,0.087,0,0,0,.01.049,21.058,21.058,0,0,0,41.76,0,0.059,0.059,0,0,0,.01-0.04C1329.05,508.9,1329.08,508.611,1329.11,508.325Zm-1.49-1.953c0,0.3-.01.6-0.02,0.9l-0.03.439-0.03.4c-0.02.213-.04,0.427-0.07,0.639,0,0.032-.01.063-0.01,0.095a19.274,19.274,0,0,1-.93,3.918h-6.46l0.03-.187v-0.023a72.1,72.1,0,0,0,7.46-7.7C1327.6,505.357,1327.62,505.865,1327.62,506.372Zm-2.09,8.79c-0.07.144-.14,0.289-0.22,0.431s-0.14.265-.22,0.4-0.15.279-.23,0.416-0.16.259-.24,0.387-0.17.269-.26,0.4-0.17.252-.26,0.377-0.18.258-.27,0.385-0.19.245-.28,0.366-0.19.247-.29,0.368-0.19.238-.29,0.355-0.2.236-.31,0.352-0.2.228-.31,0.341-0.21.226-.32,0.336-0.22.219-.33,0.327-0.22.215-.33,0.32-0.23.209-.35,0.312-0.23.2-.34,0.3-0.24.2-.36,0.295-0.24.192-.37,0.286-0.24.188-.37,0.279-0.25.182-.37,0.27l-0.39.261q-0.195.128-.39,0.251c-0.13.083-.26,0.165-0.4,0.244s-0.26.156-.4,0.232-0.27.152-.41,0.226-0.27.143-.41,0.213-0.28.139-.42,0.206-0.29.13-.43,0.193-0.28.126-.43,0.186-0.29.117-.44,0.174-0.29.112-.44,0.165-0.3.1-.45,0.153l-0.09.029c2.51-2.288,4.52-6,5.62-10.652h6.19c-0.06.137-.12,0.274-0.18,0.409S1325.6,515.027,1325.53,515.162Zm-36.75-6.322c0-.033-0.01-0.065-0.01-0.1-0.03-.212-0.05-0.424-0.07-0.636l-0.03-.4-0.03-.439c-0.01-.3-0.02-0.595-0.02-0.9s0.01-.6.02-0.9l0.03-.437,0.03-.4c0.02-.213.04-0.426,0.07-0.638,0-.032.01-0.064,0.01-0.1a19.324,19.324,0,0,1,.93-3.92h6.47a34.866,34.866,0,0,0,0,12.774h-6.48A19.984,19.984,0,0,1,1288.78,508.84Zm8.39-2.468a33.507,33.507,0,0,1,.61-6.388h9.53a0.066,0.066,0,0,0,.02.036v12.738h-9.55A33.486,33.486,0,0,1,1297.17,506.372Zm11.74,6.386V502.464a66.885,66.885,0,0,0,9.53,10.294h-9.53Zm9.19,1.589c-1.64,6.5-5.21,11.014-9.19,11.548V514.347h9.19ZM1298.13,498.4c1.59-6.36,5.03-10.93,9.08-11.529a13.882,13.882,0,0,0-1.91,7.036,10.876,10.876,0,0,0,1.18,4.493h-8.35Zm9.2,15.951v11.547c-4.11-.528-7.59-5.125-9.2-11.547h9.2Zm11.82-32.759a12.31,12.31,0,0,1,12.27,12.315c0,6-9.88,15.227-12.27,17.368-2.39-2.141-12.27-11.363-12.27-17.368A12.31,12.31,0,0,1,1319.15,481.588Zm-16.94,6.13c-2.56,2.322-4.59,6.1-5.69,10.678h-6.2A19.632,19.632,0,0,1,1302.21,487.718Zm-11.89,26.629h6.2c1.1,4.576,3.13,8.358,5.69,10.681A19.6,19.6,0,0,1,1290.32,514.347Zm28.83-13.14a7.3,7.3,0,1,0-7.28-7.3A7.294,7.294,0,0,0,1319.15,501.207Zm0-13.014a5.713,5.713,0,1,1-5.69,5.71A5.705,5.705,0,0,1,1319.15,488.193Z" transform="translate(-1287.03 -480)"/>
</svg>
