<svg xmlns="http://www.w3.org/2000/svg" width="26.156" height="26.16" viewBox="0 0 26.156 26.16">
  <defs>
    <style>
      .cls-1 {
        fill: #454545;
        fill-rule: evenodd;
      }
    </style>
  </defs>
  <path class="cls-1" d="M766.668,3202.25a13.085,13.085,0,1,0,13.086,13.09A13.087,13.087,0,0,0,766.668,3202.25Zm3.373,10.5-0.175,2.28h-2.343v7.95h-2.961v-7.95h-1.579v-2.28h1.579v-1.54a4.077,4.077,0,0,1,.509-2.36,2.8,2.8,0,0,1,2.452-1.16,9.738,9.738,0,0,1,2.831.29l-0.4,2.34a5.338,5.338,0,0,0-1.272-.19,0.955,0.955,0,0,0-1.164.83v1.79h2.518Z" transform="translate(-753.594 -3202.25)"/>
</svg>
