<svg xmlns="http://www.w3.org/2000/svg" width="27.969" height="27.97" viewBox="0 0 27.969 27.97">
  <defs>
    <style>
      .cls-1 {
        fill: #454545;
        fill-rule: evenodd;
      }
    </style>
  </defs>
  <path class="cls-1" d="M724.575,3215.75l5.706-3.35-5.706-3.35v6.7Zm2.4-17.81a13.98,13.98,0,1,0,13.978,13.98A13.979,13.979,0,0,0,726.978,3197.94Zm8.633,17.57a2.941,2.941,0,0,1-3,3H721.186a2.938,2.938,0,0,1-3-3v-6.23a2.939,2.939,0,0,1,3-3h11.421a2.939,2.939,0,0,1,3,3v6.23Z" transform="translate(-713 -3197.94)"/>
</svg>
