<svg xmlns="http://www.w3.org/2000/svg" width="19.625" height="35.09" viewBox="0 0 19.625 35.09">
  <defs>
    <style>
      .cls-1 {
        fill: #fe0;
        fill-rule: evenodd;
      }
    </style>
  </defs>
  <path id="Shape_3_copy_3" data-name="Shape 3 copy 3" class="cls-1" d="M677.305,3112.9H663.083a2.713,2.713,0,0,0-2.7,2.73v29.64a2.713,2.713,0,0,0,2.7,2.73h14.222a2.713,2.713,0,0,0,2.7-2.73v-29.64A2.713,2.713,0,0,0,677.305,3112.9Zm1.433,32.37a1.442,1.442,0,0,1-1.433,1.45H663.083a1.443,1.443,0,0,1-1.434-1.45v-2.8h17.089v2.8Zm0-4.08H661.649v-22.13h17.089v22.13Zm0-23.41H661.649v-2.15a1.443,1.443,0,0,1,1.434-1.45h14.222a1.442,1.442,0,0,1,1.433,1.45v2.15Zm-10.972,27.35h4.883a0.64,0.64,0,0,0,0-1.28h-4.883A0.64,0.64,0,0,0,667.766,3145.13Z" transform="translate(-660.375 -3112.91)"/>
</svg>
