<svg xmlns="http://www.w3.org/2000/svg" width="21.438" height="30.469" viewBox="0 0 21.438 30.469">
  <defs>
    <style>
      .cls-1 {
        fill-rule: evenodd;
      }
    </style>
  </defs>
  <path id="Shape_386_copy_3" data-name="Shape 386 copy 3" class="cls-1" d="M866.716,727.152a3.549,3.549,0,1,0,3.554,3.548A3.556,3.556,0,0,0,866.716,727.152Zm0-7.152a10.7,10.7,0,0,0-5.05,20.139,1.788,1.788,0,0,1,.783.838l4.267,9.487,4.267-9.487a1.784,1.784,0,0,1,.782-0.837A10.7,10.7,0,0,0,866.716,720Zm0,17.8a7.1,7.1,0,1,1,7.11-7.1A7.112,7.112,0,0,1,866.716,737.8Z" transform="translate(-856 -720)"/>
</svg>
