<svg xmlns="http://www.w3.org/2000/svg" width="24.969" height="33.31" viewBox="0 0 24.969 33.31">
  <defs>
    <style>
      .cls-1 {
        fill: #fe0;
        fill-rule: evenodd;
      }
    </style>
  </defs>
  <path class="cls-1" d="M321.48,3143.3a3.668,3.668,0,0,1-3.126-1.82c-0.329-.54-6.1-10.05-7.827-13.16A12.282,12.282,0,0,1,309,3122.4a12.5,12.5,0,0,1,12.476-12.4h0.011a12.5,12.5,0,0,1,12.476,12.4,12.283,12.283,0,0,1-1.529,5.92c-1.721,3.11-7.5,12.62-7.826,13.16A3.67,3.67,0,0,1,321.48,3143.3Zm0-31.63A10.819,10.819,0,0,0,310.7,3122.4a10.648,10.648,0,0,0,1.32,5.12c1.718,3.1,7.739,13.01,7.8,13.11a0.141,0.141,0,0,0,.023.04,1.982,1.982,0,0,0,1.643.95,2,2,0,0,0,1.648-.95l0.019-.04c0.06-.1,6.08-10.01,7.8-13.11a10.649,10.649,0,0,0,1.321-5.12A10.819,10.819,0,0,0,321.48,3111.67Zm0,16.91a6.26,6.26,0,1,1,6.338-6.26A6.3,6.3,0,0,1,321.48,3128.58Zm0-10.84a4.585,4.585,0,1,0,4.642,4.58A4.62,4.62,0,0,0,321.48,3117.74Z" transform="translate(-309 -3110)"/>
</svg>
