<svg xmlns="http://www.w3.org/2000/svg" width="39" height="39" viewBox="0 0 39 39">
  <defs>
    <style>
      .cls-1 {
        fill: #fee941;
        fill-rule: evenodd;
      }
    </style>
  </defs>
  <path class="cls-1" d="M1306.55,432.146a15.581,15.581,0,1,1,15.58-15.58A15.6,15.6,0,0,1,1306.55,432.146Zm0-29.351a13.77,13.77,0,1,0,13.77,13.771A13.788,13.788,0,0,0,1306.55,402.8Zm18.69,37.178-7.68-7.676,4.73-4.724,7.67,7.675Zm-5.12-7.676,5.12,5.116,2.16-2.165-5.11-5.116Zm-0.2-1.081-2.22-2.227,1.28-1.281,2.22,2.227Z" transform="translate(-1290.97 -400.969)"/>
</svg>
