<svg xmlns="http://www.w3.org/2000/svg" width="25.594" height="22.62" viewBox="0 0 25.594 22.62">
  <defs>
    <style>
      .cls-1 {
        fill: #f1e42e;
        fill-rule: evenodd;
      }
    </style>
  </defs>
  <path class="cls-1" d="M335.852,1816.53l-10.807,10.88-3.955-4.03a1.6,1.6,0,0,0-2.272-.02h0a1.588,1.588,0,0,0,0,2.25l4.077,4.07,2.15,2.14,2.149-2.14,10.929-10.9a1.583,1.583,0,0,0,0-2.25h0A1.6,1.6,0,0,0,335.852,1816.53Zm-2.8,9.79a8.692,8.692,0,1,1-2.879-6.44l1.872-1.88a11.3,11.3,0,1,0,3.379,5.81l-2.377,2.37C333.05,1826.23,333.054,1826.27,333.054,1826.32Z" transform="translate(-313 -1815)"/>
</svg>
